<svg width="26" height="20" viewBox="0 0 26 20" fill="none" xmlns="http://www.w3.org/2000/svg">
<path d="M20.8296 0H5.17033C2.31935 0 0 2.43601 0 5.43024V14.5698C0 17.564 2.31935 20 5.17033 20H20.8296C23.6806 20 26 17.564 26 14.5698V5.43024C26 2.43601 23.6806 0 20.8296 0ZM24.9388 14.5698C24.9388 16.9512 23.0954 18.8889 20.8296 18.8889H5.17033C2.90461 18.8889 1.06122 16.9512 1.06122 14.5698V5.43024C1.06122 3.04879 2.90461 1.11111 5.17033 1.11111H20.8296C23.0954 1.11111 24.9388 3.04879 24.9388 5.43024V14.5698Z" fill="black"/>
</svg>
