<svg width="143" height="113" viewBox="0 0 143 113" fill="none" xmlns="http://www.w3.org/2000/svg">
<path d="M18.6331 36.25C16.0664 36.25 13.7497 35.75 11.6831 34.75C9.61644 33.75 7.83314 32.4 6.3331 30.7C4.8331 28.9667 3.66643 27.0333 2.8331 24.9C2.0331 22.7333 1.6331 20.5167 1.6331 18.25C1.6331 15.8833 2.06643 13.6333 2.9331 11.5C3.79976 9.3333 4.99976 7.41667 6.53314 5.75C8.06644 4.05 9.86644 2.71667 11.9331 1.75C14.0331 0.75 16.2997 0.25 18.7331 0.25C21.2664 0.25 23.5664 0.76667 25.6331 1.8C27.7331 2.83333 29.5164 4.21666 30.9831 5.95C32.4831 7.68333 33.6331 9.6167 34.4331 11.75C35.2664 13.8833 35.6831 16.0667 35.6831 18.3C35.6831 20.6667 35.2497 22.9333 34.3831 25.1C33.5497 27.2333 32.3664 29.15 30.8331 30.85C29.2997 32.5167 27.4831 33.8333 25.3831 34.8C23.3164 35.7667 21.0664 36.25 18.6331 36.25ZM7.33314 18.25C7.33314 19.9167 7.59974 21.5333 8.13314 23.1C8.66644 24.6667 9.41644 26.0667 10.3831 27.3C11.3831 28.5 12.5831 29.45 13.9831 30.15C15.3831 30.85 16.9497 31.2 18.6831 31.2C20.4831 31.2 22.0831 30.8333 23.4831 30.1C24.8831 29.3667 26.0497 28.3833 26.9831 27.15C27.9497 25.8833 28.6831 24.4833 29.1831 22.95C29.6831 21.3833 29.9331 19.8167 29.9331 18.25C29.9331 16.5833 29.6664 14.9833 29.1331 13.45C28.6331 11.8833 27.8831 10.5 26.8831 9.3C25.8831 8.06666 24.6831 7.1 23.2831 6.4C21.9164 5.7 20.3831 5.35 18.6831 5.35C16.8831 5.35 15.2831 5.71667 13.8831 6.45C12.4831 7.18333 11.2997 8.16667 10.3331 9.4C9.36644 10.6333 8.61644 12.0167 8.08314 13.55C7.58314 15.0833 7.33314 16.65 7.33314 18.25ZM86.6307 0.5V36H80.9807V20.35H63.0807V36H57.4807V0.5H63.0807V15.35H80.9807V0.5H86.6307ZM125.389 36.25C122.823 36.25 120.506 35.75 118.439 34.75C116.373 33.75 114.589 32.4 113.089 30.7C111.589 28.9667 110.423 27.0333 109.589 24.9C108.789 22.7333 108.389 20.5167 108.389 18.25C108.389 15.8833 108.823 13.6333 109.689 11.5C110.556 9.3333 111.756 7.41667 113.289 5.75C114.823 4.05 116.623 2.71667 118.689 1.75C120.789 0.75 123.056 0.25 125.489 0.25C128.023 0.25 130.323 0.76667 132.389 1.8C134.489 2.83333 136.273 4.21666 137.739 5.95C139.239 7.68333 140.389 9.6167 141.189 11.75C142.023 13.8833 142.439 16.0667 142.439 18.3C142.439 20.6667 142.006 22.9333 141.139 25.1C140.306 27.2333 139.123 29.15 137.589 30.85C136.056 32.5167 134.239 33.8333 132.139 34.8C130.073 35.7667 127.823 36.25 125.389 36.25ZM114.089 18.25C114.089 19.9167 114.356 21.5333 114.889 23.1C115.423 24.6667 116.173 26.0667 117.139 27.3C118.139 28.5 119.339 29.45 120.739 30.15C122.139 30.85 123.706 31.2 125.439 31.2C127.239 31.2 128.839 30.8333 130.239 30.1C131.639 29.3667 132.806 28.3833 133.739 27.15C134.706 25.8833 135.439 24.4833 135.939 22.95C136.439 21.3833 136.689 19.8167 136.689 18.25C136.689 16.5833 136.423 14.9833 135.889 13.45C135.389 11.8833 134.639 10.5 133.639 9.3C132.639 8.06666 131.439 7.1 130.039 6.4C128.673 5.7 127.139 5.35 125.439 5.35C123.639 5.35 122.039 5.71667 120.639 6.45C119.239 7.18333 118.056 8.16667 117.089 9.4C116.123 10.6333 115.373 12.0167 114.839 13.55C114.339 15.0833 114.089 16.65 114.089 18.25ZM30.1936 40.45H18.3936V71H12.7436V40.45H0.893677V35.5H30.1936V40.45ZM64.8042 66.05V71H40.4542V35.5H64.3542V40.45H46.0542V50.55H61.9042V55.2H46.0542V66.05H64.8042ZM76.1311 71V35.5H101.082V40.4H81.7311V50.35H92.1311C96.0645 50.35 99.0146 51.2833 100.982 53.15C102.948 54.9833 103.932 57.4167 103.932 60.45C103.932 62.4833 103.498 64.3 102.632 65.9C101.798 67.4667 100.532 68.7167 98.8316 69.65C97.1646 70.55 95.0478 71 92.4811 71H76.1311ZM81.7311 66.1H91.7311C93.2645 66.1 94.4978 65.8167 95.4311 65.25C96.3978 64.6833 97.0816 63.9667 97.4816 63.1C97.9146 62.2 98.1316 61.2667 98.1316 60.3C98.1316 59.3333 97.9476 58.4333 97.5816 57.6C97.2146 56.7667 96.5476 56.1 95.5811 55.6C94.6478 55.0667 93.3311 54.8 91.6311 54.8H81.7311V66.1ZM139.037 66.05V71H114.687V35.5H138.587V40.45H120.287V50.55H136.137V55.2H120.287V66.05H139.037ZM30.069 70.5V106H24.419V90.35H6.51904V106H0.919067V70.5H6.51904V85.35H24.419V70.5H30.069ZM49.3272 70.5H54.6272L68.4272 106H62.5272L58.7772 96.35H45.0772L41.3772 106H35.4272L49.3272 70.5ZM57.6772 92.2L51.9772 76.65L46.0772 92.2H57.6772ZM68.2175 112.8V101.05H69.9175C70.8508 101.05 71.6508 100.683 72.3175 99.95C73.0175 99.217 73.6008 98.05 74.0675 96.45C74.5675 94.85 74.9508 92.75 75.2175 90.15C75.5175 87.5167 75.7341 84.3 75.8675 80.5L76.1175 70.5H98.9676V101.05H103.468V112.8H98.5176V106H73.1675V112.8H68.2175ZM77.0175 101.05H93.3175V75.45H81.3175L81.1675 81.25C81.0675 85.0833 80.8675 88.3333 80.5675 91C80.2675 93.6333 79.8341 95.7667 79.2675 97.4C78.7008 99.033 77.9508 100.25 77.0175 101.05ZM125.191 106.25C122.624 106.25 120.308 105.75 118.241 104.75C116.174 103.75 114.391 102.4 112.891 100.7C111.391 98.9667 110.224 97.0333 109.391 94.9C108.591 92.7333 108.191 90.5167 108.191 88.25C108.191 85.8833 108.624 83.6333 109.491 81.5C110.358 79.3333 111.558 77.4167 113.091 75.75C114.624 74.05 116.424 72.7167 118.491 71.75C120.591 70.75 122.858 70.25 125.291 70.25C127.824 70.25 130.124 70.7667 132.191 71.8C134.291 72.8333 136.074 74.2167 137.541 75.95C139.041 77.6833 140.191 79.6167 140.991 81.75C141.824 83.8833 142.241 86.0667 142.241 88.3C142.241 90.6667 141.808 92.9333 140.941 95.1C140.108 97.2333 138.924 99.15 137.391 100.85C135.858 102.517 134.041 103.833 131.941 104.8C129.874 105.767 127.624 106.25 125.191 106.25ZM113.891 88.25C113.891 89.9167 114.158 91.5333 114.691 93.1C115.224 94.6667 115.974 96.0667 116.941 97.3C117.941 98.5 119.141 99.45 120.541 100.15C121.941 100.85 123.508 101.2 125.241 101.2C127.041 101.2 128.641 100.833 130.041 100.1C131.441 99.367 132.608 98.3833 133.541 97.15C134.508 95.8833 135.241 94.4833 135.741 92.95C136.241 91.3833 136.491 89.8167 136.491 88.25C136.491 86.5833 136.224 84.9833 135.691 83.45C135.191 81.8833 134.441 80.5 133.441 79.3C132.441 78.0667 131.241 77.1 129.841 76.4C128.474 75.7 126.941 75.35 125.241 75.35C123.441 75.35 121.841 75.7167 120.441 76.45C119.041 77.1833 117.858 78.1667 116.891 79.4C115.924 80.6333 115.174 82.0167 114.641 83.55C114.141 85.0833 113.891 86.65 113.891 88.25Z" fill="white"/>
</svg>
