<svg width="130" height="104" viewBox="0 0 130 104" fill="none" xmlns="http://www.w3.org/2000/svg">
<path d="M16.2085 33.636C13.8672 33.636 11.754 33.1711 9.86896 32.2412C7.98379 31.3114 6.35713 30.0562 4.98885 28.4755C3.62061 26.8638 2.55642 25.0661 1.79629 23.0825C1.06656 21.0678 0.701693 19.0068 0.701693 16.8991C0.701693 14.6985 1.09696 12.6064 1.8875 10.6228C2.67804 8.60817 3.77263 6.82604 5.17132 5.27633C6.56994 3.69563 8.21183 2.45586 10.097 1.55703C12.0125 0.627205 14.08 0.162292 16.2997 0.162292C18.6105 0.162292 20.7085 0.642705 22.5936 1.60352C24.5092 2.56434 26.1358 3.85059 27.4737 5.46229C28.8419 7.07399 29.8909 8.87168 30.6206 10.8553C31.3808 12.8389 31.7609 14.869 31.7609 16.9456C31.7609 19.1462 31.3655 21.2538 30.575 23.2684C29.8148 25.252 28.7355 27.0342 27.3369 28.6149C25.9382 30.1647 24.2811 31.3889 22.3656 32.2877C20.4804 33.1866 18.4281 33.636 16.2085 33.636ZM5.90105 16.8991C5.90105 18.4489 6.14424 19.952 6.63078 21.4088C7.11724 22.8655 7.80136 24.1673 8.68315 25.314C9.59531 26.4298 10.6899 27.3132 11.9669 27.964C13.244 28.6149 14.673 28.9404 16.2541 28.9404C17.896 28.9404 19.3554 28.5994 20.6325 27.9176C21.9095 27.2357 22.9736 26.3213 23.825 25.1746C24.7067 23.9968 25.3757 22.695 25.8318 21.2693C26.2879 19.8126 26.5159 18.3559 26.5159 16.8991C26.5159 15.3494 26.2726 13.8617 25.7862 12.436C25.3301 10.9792 24.646 9.69299 23.7338 8.5772C22.8217 7.43041 21.7271 6.53159 20.45 5.88071C19.2034 5.22984 17.8048 4.9044 16.2541 4.9044C14.6122 4.9044 13.1527 5.24534 11.8757 5.9272C10.5987 6.60907 9.51924 7.52341 8.63754 8.67019C7.75575 9.81694 7.07163 11.1033 6.58518 12.529C6.12909 13.9547 5.90105 15.4114 5.90105 16.8991ZM78.2333 0.394749V33.4035H73.0796V18.8518H56.7519V33.4035H51.6438V0.394749H56.7519V14.2026H73.0796V0.394749H78.2333ZM113.587 33.636C111.246 33.636 109.133 33.1711 107.247 32.2412C105.363 31.3114 103.735 30.0562 102.367 28.4755C100.999 26.8638 99.9354 25.0661 99.1747 23.0825C98.4449 21.0678 98.0801 19.0068 98.0801 16.8991C98.0801 14.6985 98.4759 12.6064 99.2659 10.6228C100.057 8.60817 101.151 6.82604 102.55 5.27633C103.949 3.69563 105.591 2.45586 107.475 1.55703C109.391 0.627205 111.459 0.162292 113.678 0.162292C115.989 0.162292 118.087 0.642705 119.972 1.60352C121.887 2.56434 123.515 3.85059 124.852 5.46229C126.22 7.07399 127.269 8.87168 127.999 10.8553C128.76 12.8389 129.139 14.869 129.139 16.9456C129.139 19.1462 128.744 21.2538 127.953 23.2684C127.194 25.252 126.114 27.0342 124.715 28.6149C123.317 30.1647 121.659 31.3889 119.744 32.2877C117.859 33.1866 115.807 33.636 113.587 33.636ZM103.279 16.8991C103.279 18.4489 103.523 19.952 104.009 21.4088C104.496 22.8655 105.18 24.1673 106.061 25.314C106.974 26.4298 108.068 27.3132 109.345 27.964C110.622 28.6149 112.052 28.9404 113.632 28.9404C115.274 28.9404 116.734 28.5994 118.011 27.9176C119.288 27.2357 120.352 26.3213 121.203 25.1746C122.085 23.9968 122.754 22.695 123.21 21.2693C123.666 19.8126 123.894 18.3559 123.894 16.8991C123.894 15.3494 123.652 13.8617 123.165 12.436C122.708 10.9792 122.024 9.69299 121.112 8.5772C120.2 7.43041 119.105 6.53159 117.828 5.88071C116.582 5.22984 115.183 4.9044 113.632 4.9044C111.991 4.9044 110.531 5.24534 109.254 5.9272C107.977 6.60907 106.898 7.52341 106.016 8.67019C105.135 9.81694 104.451 11.1033 103.964 12.529C103.507 13.9547 103.279 15.4114 103.279 16.8991ZM26.7535 37.5412H15.99V65.9474H10.8363V37.5412H0.0272217V32.9386H26.7535V37.5412ZM58.324 61.3447V65.9474H36.1129V32.9386H57.9135V37.5412H41.221V46.9325H55.6787V51.2561H41.221V61.3447H58.324ZM68.656 65.9474V32.9386H91.4149V37.4947H73.7641V46.7465H83.2506C86.8385 46.7465 89.5294 47.6143 91.3237 49.35C93.117 51.0547 94.0146 53.3173 94.0146 56.1377C94.0146 58.0283 93.6187 59.7176 92.8287 61.2053C92.068 62.662 90.9132 63.8243 89.3625 64.6921C87.8419 65.529 85.9111 65.9474 83.5698 65.9474H68.656ZM73.7641 61.3912H82.8857C84.2844 61.3912 85.4094 61.1278 86.2607 60.6009C87.1425 60.074 87.7662 59.4076 88.1311 58.6018C88.5261 57.7649 88.724 56.8971 88.724 55.9983C88.724 55.0994 88.5562 54.2626 88.2223 53.4877C87.8876 52.7129 87.2792 52.093 86.3975 51.6281C85.5462 51.1322 84.3452 50.8842 82.7945 50.8842H73.7641V61.3912ZM126.036 61.3447V65.9474H103.825V32.9386H125.626V37.5412H108.933V46.9325H123.391V51.2561H108.933V61.3447H126.036ZM26.6399 65.4825V98.4912H21.4862V83.9395H5.15846V98.4912H0.0503816V65.4825H5.15846V79.2904H21.4862V65.4825H26.6399ZM44.2065 65.4825H49.0409L61.6288 98.4912H56.247L52.8264 89.5184H40.3298L36.9548 98.4912H31.5274L44.2065 65.4825ZM51.823 85.6597L46.6237 71.2009L41.242 85.6597H51.823ZM61.4375 104.814V93.8886H62.9882C63.8395 93.8886 64.5692 93.5474 65.1774 92.8658C65.8159 92.1842 66.3479 91.0991 66.7737 89.6114C67.2297 88.1237 67.5794 86.1711 67.8226 83.7535C68.0963 81.305 68.2939 78.314 68.4155 74.7807L68.6436 65.4825H89.4866V93.8886H93.5913V104.814H89.0761V98.4912H65.9527V104.814H61.4375ZM69.4645 93.8886H84.3328V70.0851H73.3868L73.25 75.4781C73.1588 79.0424 72.9763 82.0643 72.7027 84.5439C72.4291 86.9924 72.0337 88.9761 71.5169 90.4947C71 92.0132 70.3158 93.1447 69.4645 93.8886ZM113.406 98.7237C111.065 98.7237 108.952 98.2588 107.067 97.329C105.181 96.3991 103.555 95.1439 102.187 93.5632C100.818 91.9515 99.7539 90.1538 98.994 88.1702C98.2643 86.1555 97.8995 84.0945 97.8995 81.9869C97.8995 79.7862 98.2944 77.6941 99.0853 75.7105C99.8761 73.6959 100.971 71.9138 102.369 70.364C103.767 68.7833 105.409 67.5436 107.295 66.6447C109.21 65.7149 111.278 65.25 113.497 65.25C115.808 65.25 117.906 65.7305 119.791 66.6912C121.707 67.652 123.333 68.9383 124.671 70.55C126.04 72.1617 127.089 73.9594 127.818 75.943C128.578 77.9266 128.959 79.9568 128.959 82.0333C128.959 84.234 128.564 86.3415 127.773 88.3561C127.013 90.3397 125.933 92.1219 124.535 93.7026C123.136 95.2527 121.479 96.4763 119.563 97.3755C117.678 98.2746 115.626 98.7237 113.406 98.7237ZM103.099 81.9869C103.099 83.5366 103.342 85.0397 103.829 86.4965C104.315 87.9533 104.999 89.255 105.881 90.4018C106.793 91.5176 107.888 92.4009 109.165 93.0518C110.442 93.7026 111.871 94.0281 113.452 94.0281C115.094 94.0281 116.553 93.6868 117.83 93.0053C119.107 92.3237 120.172 91.409 121.023 90.2623C121.905 89.0845 122.573 87.7827 123.03 86.357C123.486 84.9003 123.714 83.4436 123.714 81.9869C123.714 80.4371 123.47 78.9494 122.984 77.5237C122.528 76.0669 121.844 74.7807 120.932 73.6649C120.019 72.5182 118.925 71.6193 117.648 70.9684C116.401 70.3176 115.002 69.9921 113.452 69.9921C111.81 69.9921 110.35 70.3331 109.073 71.0149C107.796 71.6968 106.717 72.6112 105.835 73.7579C104.953 74.9047 104.269 76.191 103.783 77.6167C103.327 79.0424 103.099 80.4991 103.099 81.9869Z" fill="black"/>
</svg>
